%TF.GenerationSoftware,KiCad,Pcbnew,7.0.7*%
%TF.CreationDate,2025-01-28T13:25:58-05:00*%
%TF.ProjectId,s100 power,73313030-2070-46f7-9765-722e6b696361,rev?*%
%TF.SameCoordinates,Original*%
%TF.FileFunction,Copper,L2,Bot*%
%TF.FilePolarity,Positive*%
%FSLAX46Y46*%
G04 Gerber Fmt 4.6, Leading zero omitted, Abs format (unit mm)*
G04 Created by KiCad (PCBNEW 7.0.7) date 2025-01-28 13:25:58*
%MOMM*%
%LPD*%
G01*
G04 APERTURE LIST*
G04 Aperture macros list*
%AMRoundRect*
0 Rectangle with rounded corners*
0 $1 Rounding radius*
0 $2 $3 $4 $5 $6 $7 $8 $9 X,Y pos of 4 corners*
0 Add a 4 corners polygon primitive as box body*
4,1,4,$2,$3,$4,$5,$6,$7,$8,$9,$2,$3,0*
0 Add four circle primitives for the rounded corners*
1,1,$1+$1,$2,$3*
1,1,$1+$1,$4,$5*
1,1,$1+$1,$6,$7*
1,1,$1+$1,$8,$9*
0 Add four rect primitives between the rounded corners*
20,1,$1+$1,$2,$3,$4,$5,0*
20,1,$1+$1,$4,$5,$6,$7,0*
20,1,$1+$1,$6,$7,$8,$9,0*
20,1,$1+$1,$8,$9,$2,$3,0*%
G04 Aperture macros list end*
%TA.AperFunction,ComponentPad*%
%ADD10C,2.970000*%
%TD*%
%TA.AperFunction,ComponentPad*%
%ADD11R,4.000000X4.000000*%
%TD*%
%TA.AperFunction,ComponentPad*%
%ADD12C,4.000000*%
%TD*%
%TA.AperFunction,ComponentPad*%
%ADD13R,3.200000X3.200000*%
%TD*%
%TA.AperFunction,ComponentPad*%
%ADD14O,3.200000X3.200000*%
%TD*%
%TA.AperFunction,ComponentPad*%
%ADD15C,1.600000*%
%TD*%
%TA.AperFunction,ComponentPad*%
%ADD16R,2.000000X1.905000*%
%TD*%
%TA.AperFunction,ComponentPad*%
%ADD17O,2.000000X1.905000*%
%TD*%
%TA.AperFunction,ComponentPad*%
%ADD18RoundRect,0.875000X0.875000X0.875000X-0.875000X0.875000X-0.875000X-0.875000X0.875000X-0.875000X0*%
%TD*%
%TA.AperFunction,ComponentPad*%
%ADD19C,3.500000*%
%TD*%
%TA.AperFunction,ComponentPad*%
%ADD20C,2.400000*%
%TD*%
%TA.AperFunction,ComponentPad*%
%ADD21O,2.400000X2.400000*%
%TD*%
%TA.AperFunction,ComponentPad*%
%ADD22RoundRect,0.250000X-0.620000X-0.845000X0.620000X-0.845000X0.620000X0.845000X-0.620000X0.845000X0*%
%TD*%
%TA.AperFunction,ComponentPad*%
%ADD23O,1.740000X2.190000*%
%TD*%
%TA.AperFunction,Conductor*%
%ADD24C,3.000000*%
%TD*%
%TA.AperFunction,Conductor*%
%ADD25C,1.500000*%
%TD*%
G04 APERTURE END LIST*
D10*
%TO.P,J3,1_1,1*%
%TO.N,+8V*%
X143051504Y-86421725D03*
%TO.P,J3,1_2,1__1*%
X136041504Y-86421725D03*
%TO.P,J3,1_3,1__2*%
X143051504Y-91426725D03*
%TO.P,J3,1_4,1__3*%
X136041504Y-91426725D03*
%TO.P,J3,1_5,1__4*%
X143051504Y-96431725D03*
%TO.P,J3,1_6,1__5*%
X136041504Y-96431725D03*
%TD*%
D11*
%TO.P,C2,1*%
%TO.N,+8V*%
X89123330Y-112241097D03*
D12*
%TO.P,C2,2*%
%TO.N,GND*%
X89123330Y-122241097D03*
%TD*%
D13*
%TO.P,D8,1,K*%
%TO.N,Net-(D6-A)*%
X201208546Y-95824384D03*
D14*
%TO.P,D8,2,A*%
%TO.N,-15V*%
X201208546Y-111064384D03*
%TD*%
D10*
%TO.P,J2,1_1,1*%
%TO.N,/Secondary 2*%
X232151925Y-82421725D03*
%TO.P,J2,1_2,1__1*%
X225141925Y-82421725D03*
%TO.P,J2,1_3,1__2*%
X232151925Y-87426725D03*
%TO.P,J2,1_4,1__3*%
X225141925Y-87426725D03*
%TO.P,J2,1_5,1__4*%
X232151925Y-92431725D03*
%TO.P,J2,1_6,1__5*%
X225141925Y-92431725D03*
%TD*%
D11*
%TO.P,C1,1*%
%TO.N,+8V*%
X132365348Y-112241097D03*
D12*
%TO.P,C1,2*%
%TO.N,GND*%
X132365348Y-122241097D03*
%TD*%
D10*
%TO.P,J5,1_1,1*%
%TO.N,+15V*%
X166152740Y-86421725D03*
%TO.P,J5,1_2,1__1*%
X159142740Y-86421725D03*
%TO.P,J5,1_3,1__2*%
X166152740Y-91426725D03*
%TO.P,J5,1_4,1__3*%
X159142740Y-91426725D03*
%TO.P,J5,1_5,1__4*%
X166152740Y-96431725D03*
%TO.P,J5,1_6,1__5*%
X159142740Y-96431725D03*
%TD*%
D11*
%TO.P,C6,1*%
%TO.N,GND*%
X163660930Y-106972444D03*
D12*
%TO.P,C6,2*%
%TO.N,-15V*%
X163660930Y-116972444D03*
%TD*%
D10*
%TO.P,J1,1_1,1*%
%TO.N,/Secondary 1*%
X232151925Y-114164962D03*
%TO.P,J1,1_2,1__1*%
X225141925Y-114164962D03*
%TO.P,J1,1_3,1__2*%
X232151925Y-119169962D03*
%TO.P,J1,1_4,1__3*%
X225141925Y-119169962D03*
%TO.P,J1,1_5,1__4*%
X232151925Y-124174962D03*
%TO.P,J1,1_6,1__5*%
X225141925Y-124174962D03*
%TD*%
D15*
%TO.P,C9,1*%
%TO.N,+12V*%
X60958683Y-77250621D03*
%TO.P,C9,2*%
%TO.N,/Fused GND*%
X60958683Y-72250621D03*
%TD*%
D16*
%TO.P,U1,1,VI*%
%TO.N,+15V*%
X90387545Y-69099803D03*
D17*
%TO.P,U1,2,GND*%
%TO.N,/Fused GND*%
X90387545Y-71639803D03*
%TO.P,U1,3,VO*%
%TO.N,+12V*%
X90387545Y-74179803D03*
%TD*%
D18*
%TO.P,F1,1*%
%TO.N,/Fused GND*%
X69411218Y-92977499D03*
X61791218Y-92977499D03*
D19*
%TO.P,F1,2*%
%TO.N,GND*%
X42821218Y-92977499D03*
X35201218Y-92977499D03*
%TD*%
D11*
%TO.P,C8,1*%
%TO.N,+8V*%
X51937228Y-112254240D03*
D12*
%TO.P,C8,2*%
%TO.N,GND*%
X51937228Y-122254240D03*
%TD*%
D11*
%TO.P,C4,1*%
%TO.N,/Secondary 1*%
X191778048Y-124332255D03*
D12*
%TO.P,C4,2*%
%TO.N,Net-(D5-A)*%
X181778048Y-124332255D03*
%TD*%
D13*
%TO.P,D1,1,K*%
%TO.N,/Secondary 1*%
X219084144Y-121134668D03*
D14*
%TO.P,D1,2,A*%
%TO.N,GND*%
X219084144Y-105894668D03*
%TD*%
D15*
%TO.P,C7,1*%
%TO.N,/Secondary 1*%
X229935551Y-105766044D03*
%TO.P,C7,2*%
%TO.N,/Secondary 2*%
X229935551Y-100766044D03*
%TD*%
D11*
%TO.P,C5,1*%
%TO.N,/Secondary 2*%
X183927532Y-89874830D03*
D12*
%TO.P,C5,2*%
%TO.N,Net-(D6-A)*%
X183927532Y-99874830D03*
%TD*%
D13*
%TO.P,D2,1,K*%
%TO.N,/Secondary 2*%
X219084144Y-85881828D03*
D14*
%TO.P,D2,2,A*%
%TO.N,GND*%
X219084144Y-101121828D03*
%TD*%
D20*
%TO.P,R1,1*%
%TO.N,/Secondary 1*%
X224266068Y-110909979D03*
D21*
%TO.P,R1,2*%
%TO.N,/Secondary 2*%
X224266068Y-95669979D03*
%TD*%
D10*
%TO.P,J4,1_1,1*%
%TO.N,/Fused GND*%
X83563668Y-86421725D03*
%TO.P,J4,1_2,1__1*%
X76553668Y-86421725D03*
%TO.P,J4,1_3,1__2*%
X83563668Y-91426725D03*
%TO.P,J4,1_4,1__3*%
X76553668Y-91426725D03*
%TO.P,J4,1_5,1__4*%
X83563668Y-96431725D03*
%TO.P,J4,1_6,1__5*%
X76553668Y-96431725D03*
%TD*%
%TO.P,J6,1_1,1*%
%TO.N,-15V*%
X166152740Y-126744735D03*
%TO.P,J6,1_2,1__1*%
X159142740Y-126744735D03*
%TO.P,J6,1_3,1__2*%
X166152740Y-131749735D03*
%TO.P,J6,1_4,1__3*%
X159142740Y-131749735D03*
%TO.P,J6,1_5,1__4*%
X166152740Y-136754735D03*
%TO.P,J6,1_6,1__5*%
X159142740Y-136754735D03*
%TD*%
D13*
%TO.P,D6,1,K*%
%TO.N,GND*%
X208602405Y-111057823D03*
D14*
%TO.P,D6,2,A*%
%TO.N,Net-(D6-A)*%
X208602405Y-95817823D03*
%TD*%
D13*
%TO.P,D7,1,K*%
%TO.N,Net-(D5-A)*%
X203950028Y-131915749D03*
D14*
%TO.P,D7,2,A*%
%TO.N,-15V*%
X203950028Y-116675749D03*
%TD*%
D11*
%TO.P,C3,1*%
%TO.N,+15V*%
X110733720Y-89874830D03*
D12*
%TO.P,C3,2*%
%TO.N,+8V*%
X110733720Y-99874830D03*
%TD*%
D22*
%TO.P,J7,1,Pin_1*%
%TO.N,/Fused GND*%
X50408704Y-83895128D03*
D23*
%TO.P,J7,2,Pin_2*%
%TO.N,+12V*%
X52948704Y-83895128D03*
%TO.P,J7,3,Pin_3*%
%TO.N,unconnected-(J7-Pin_3-Pad3)*%
X55488704Y-83895128D03*
%TD*%
D13*
%TO.P,D3,1,K*%
%TO.N,+15V*%
X203950028Y-70145419D03*
D14*
%TO.P,D3,2,A*%
%TO.N,/Secondary 1*%
X203950028Y-85385419D03*
%TD*%
D13*
%TO.P,D5,1,K*%
%TO.N,GND*%
X211347494Y-116682656D03*
D14*
%TO.P,D5,2,A*%
%TO.N,Net-(D5-A)*%
X211347494Y-131922656D03*
%TD*%
D13*
%TO.P,D4,1,K*%
%TO.N,+15V*%
X211347494Y-70145419D03*
D14*
%TO.P,D4,2,A*%
%TO.N,/Secondary 2*%
X211347494Y-85385419D03*
%TD*%
D24*
%TO.N,GND*%
X51950371Y-122241097D02*
X51937228Y-122254240D01*
X211366389Y-116701551D02*
X211347494Y-116682656D01*
D25*
%TO.N,+15V*%
X90387545Y-69099803D02*
X119349238Y-69099803D01*
D24*
%TO.N,/Secondary 2*%
X219058383Y-85856067D02*
X219084144Y-85881828D01*
D25*
%TO.N,+12V*%
X90387545Y-74179803D02*
X64029501Y-74179803D01*
X59334342Y-77250621D02*
X60958683Y-77250621D01*
X52948704Y-83636259D02*
X59334342Y-77250621D01*
X64029501Y-74179803D02*
X60958683Y-77250621D01*
X52948704Y-83895128D02*
X52948704Y-83636259D01*
%TO.N,/Fused GND*%
X90387545Y-71639803D02*
X61569501Y-71639803D01*
X50408704Y-82800600D02*
X60958683Y-72250621D01*
X90387545Y-71639803D02*
X92792545Y-71639803D01*
X92792545Y-71639803D02*
X93924138Y-72771396D01*
X61569501Y-71639803D02*
X60958683Y-72250621D01*
X50408704Y-83895128D02*
X50408704Y-82800600D01*
X93924138Y-72771396D02*
X93924138Y-80534398D01*
%TD*%
%TA.AperFunction,Conductor*%
%TO.N,+15V*%
G36*
X213312442Y-65657814D02*
G01*
X213379457Y-65677576D01*
X213425151Y-65730433D01*
X213436297Y-65781722D01*
X213444450Y-76770930D01*
X213424815Y-76837984D01*
X213372045Y-76883778D01*
X213320291Y-76895022D01*
X201569682Y-76879923D01*
X201523903Y-76879865D01*
X201523902Y-76879865D01*
X201523900Y-76879865D01*
X201416548Y-76891255D01*
X201365080Y-76902370D01*
X201365066Y-76902374D01*
X201262606Y-76936289D01*
X201262599Y-76936293D01*
X201141435Y-77013859D01*
X201141422Y-77013869D01*
X201088542Y-77059526D01*
X200994137Y-77168085D01*
X200994137Y-77168086D01*
X200934132Y-77298857D01*
X200914328Y-77365859D01*
X200914325Y-77365868D01*
X200893597Y-77508247D01*
X200893596Y-77508251D01*
X200893597Y-77508251D01*
X200877142Y-86794628D01*
X200857338Y-86861632D01*
X200804454Y-86907293D01*
X200753102Y-86918408D01*
X171988090Y-86909187D01*
X171980401Y-86909185D01*
X171980400Y-86909185D01*
X171974827Y-97859198D01*
X171955108Y-97926228D01*
X171902281Y-97971956D01*
X171850856Y-97983135D01*
X146364508Y-97989185D01*
X146297464Y-97969516D01*
X146251697Y-97916723D01*
X146240479Y-97865291D01*
X146240474Y-97859198D01*
X146224343Y-78925830D01*
X146200489Y-78925806D01*
X122067440Y-78901953D01*
X122087207Y-92009230D01*
X122067623Y-92076299D01*
X122014889Y-92122134D01*
X121963297Y-92133417D01*
X107483962Y-92143978D01*
X107416909Y-92124342D01*
X107371115Y-92071572D01*
X107359872Y-92019874D01*
X107382553Y-65658926D01*
X107402295Y-65591905D01*
X107455139Y-65546195D01*
X107506692Y-65535034D01*
X213312442Y-65657814D01*
G37*
%TD.AperFunction*%
%TD*%
%TA.AperFunction,Conductor*%
%TO.N,GND*%
G36*
X49060345Y-88324886D02*
G01*
X49106202Y-88377601D01*
X49117507Y-88429163D01*
X49153447Y-115037167D01*
X49153448Y-115037168D01*
X135346207Y-114981804D01*
X146000108Y-98781603D01*
X146053389Y-98736409D01*
X146103712Y-98725739D01*
X181067364Y-98727037D01*
X181134399Y-98746724D01*
X181180152Y-98799530D01*
X181191356Y-98851170D01*
X181188115Y-101876811D01*
X181199586Y-101984421D01*
X181199587Y-101984429D01*
X181199588Y-101984431D01*
X181207043Y-102018824D01*
X181210772Y-102036027D01*
X181244888Y-102138726D01*
X181244889Y-102138729D01*
X181322622Y-102259802D01*
X181322625Y-102259805D01*
X181368354Y-102312625D01*
X181477050Y-102406893D01*
X181607902Y-102466720D01*
X181664300Y-102483306D01*
X181670688Y-102485823D01*
X181709506Y-102491421D01*
X181817341Y-102506973D01*
X185968780Y-102508778D01*
X186075615Y-102497407D01*
X186126847Y-102486353D01*
X186228866Y-102452661D01*
X186350135Y-102375231D01*
X186403074Y-102329632D01*
X186403076Y-102329630D01*
X186497617Y-102221171D01*
X186557773Y-102090470D01*
X186577655Y-102023489D01*
X186598551Y-101881135D01*
X186607467Y-98858332D01*
X186627349Y-98791352D01*
X186680287Y-98745753D01*
X186731477Y-98734699D01*
X210462853Y-98737548D01*
X210546958Y-98728488D01*
X210553575Y-98728132D01*
X210809082Y-98728142D01*
X210876120Y-98747829D01*
X210890224Y-98758382D01*
X210908518Y-98774216D01*
X210908519Y-98774216D01*
X210908520Y-98774217D01*
X211039423Y-98833913D01*
X211039425Y-98833913D01*
X211039428Y-98833915D01*
X211106478Y-98853563D01*
X211248902Y-98873962D01*
X221819122Y-98868269D01*
X221886169Y-98887916D01*
X221931953Y-98940696D01*
X221943186Y-98992534D01*
X221923918Y-107958210D01*
X221904089Y-108025207D01*
X221851187Y-108070849D01*
X221799834Y-108081944D01*
X217484557Y-108079012D01*
X217484551Y-108079012D01*
X217376771Y-108090562D01*
X217376744Y-108090566D01*
X217325118Y-108101796D01*
X217325111Y-108101798D01*
X217222277Y-108136059D01*
X217101279Y-108213924D01*
X217079634Y-108232702D01*
X217016095Y-108261764D01*
X216998306Y-108263036D01*
X216898361Y-108262978D01*
X216898361Y-108262979D01*
X216898317Y-108469180D01*
X216893316Y-108504014D01*
X216875041Y-108566398D01*
X216875018Y-108566468D01*
X216854630Y-108708902D01*
X216854630Y-108708904D01*
X216860720Y-118549763D01*
X216841077Y-118616815D01*
X216788301Y-118662602D01*
X216736692Y-118673840D01*
X208244056Y-118671912D01*
X208244049Y-118671913D01*
X208134188Y-118683602D01*
X208134091Y-118682692D01*
X208068610Y-118674355D01*
X208015074Y-118629458D01*
X208009764Y-118620722D01*
X206029284Y-115037168D01*
X202680572Y-108977883D01*
X202680570Y-108977882D01*
X202357186Y-108976934D01*
X202322498Y-108971878D01*
X202298842Y-108964906D01*
X202298833Y-108964903D01*
X202298822Y-108964901D01*
X202156437Y-108944286D01*
X202156428Y-108944285D01*
X196550361Y-108938769D01*
X196550360Y-108938769D01*
X196550359Y-108938769D01*
X196544706Y-108939082D01*
X196521933Y-108940343D01*
X196521925Y-108940343D01*
X196521923Y-108940344D01*
X196480081Y-108945036D01*
X196459501Y-108948525D01*
X196424002Y-108954543D01*
X196422187Y-108955041D01*
X196389072Y-108959444D01*
X196359637Y-108959358D01*
X196346199Y-108972864D01*
X196302803Y-109001140D01*
X196289710Y-109006174D01*
X196228727Y-109040272D01*
X196228728Y-109040271D01*
X196114420Y-109127644D01*
X196114414Y-109127649D01*
X196114414Y-109127650D01*
X195128450Y-110133614D01*
X191103227Y-114240488D01*
X191042243Y-114274586D01*
X191014650Y-114277691D01*
X157368666Y-114272156D01*
X157261056Y-114283723D01*
X157236953Y-114288970D01*
X157209481Y-114294950D01*
X157209478Y-114294950D01*
X157209473Y-114294952D01*
X157106819Y-114329150D01*
X157106813Y-114329153D01*
X156985806Y-114406991D01*
X156936026Y-114450162D01*
X156935662Y-114450439D01*
X156933022Y-114452767D01*
X156933019Y-114452769D01*
X156933019Y-114452770D01*
X156895098Y-114496571D01*
X156843716Y-114555919D01*
X156784953Y-114593718D01*
X156749880Y-114598755D01*
X156630581Y-114598669D01*
X156641225Y-128216462D01*
X156621593Y-128283517D01*
X156568825Y-128329313D01*
X156517174Y-128340559D01*
X30669451Y-128288346D01*
X30602419Y-128268634D01*
X30556686Y-128215811D01*
X30545502Y-128164324D01*
X30547213Y-118682692D01*
X30552665Y-88464600D01*
X30572362Y-88397567D01*
X30625174Y-88351821D01*
X30676423Y-88340625D01*
X48993268Y-88305330D01*
X49060345Y-88324886D01*
G37*
%TD.AperFunction*%
%TD*%
%TA.AperFunction,Conductor*%
%TO.N,Net-(D6-A)*%
G36*
X210524385Y-93289414D02*
G01*
X210570180Y-93342183D01*
X210581425Y-93393635D01*
X210586929Y-98107903D01*
X210567323Y-98174966D01*
X210514572Y-98220782D01*
X210462914Y-98232048D01*
X186132799Y-98229128D01*
X186103823Y-98229125D01*
X186103822Y-98229125D01*
X186093053Y-101879644D01*
X186073171Y-101946625D01*
X186020232Y-101992224D01*
X185969000Y-102003278D01*
X181817561Y-102001473D01*
X181750530Y-101981759D01*
X181704798Y-101928935D01*
X181693615Y-101877344D01*
X181702682Y-93415381D01*
X181722438Y-93348365D01*
X181775291Y-93302667D01*
X181826587Y-93291516D01*
X210457331Y-93269780D01*
X210524385Y-93289414D01*
G37*
%TD.AperFunction*%
%TD*%
%TA.AperFunction,Conductor*%
%TO.N,/Secondary 2*%
G36*
X233549492Y-80830753D02*
G01*
X233616393Y-80850891D01*
X233661788Y-80904004D01*
X233672647Y-80954847D01*
X233655244Y-102975005D01*
X233635506Y-103042029D01*
X233582666Y-103087742D01*
X233531337Y-103098907D01*
X227239453Y-103103609D01*
X227172399Y-103083975D01*
X227126604Y-103031205D01*
X227115360Y-102979609D01*
X227115360Y-102975005D01*
X227115360Y-98359918D01*
X227115359Y-98359918D01*
X227115359Y-98359917D01*
X211248630Y-98368462D01*
X211181580Y-98348814D01*
X211135796Y-98296034D01*
X211124563Y-98244619D01*
X211117597Y-92729567D01*
X211117596Y-92729567D01*
X181858227Y-92744508D01*
X181791178Y-92724858D01*
X181745396Y-92672077D01*
X181734164Y-92620418D01*
X181737656Y-87816306D01*
X181757389Y-87749285D01*
X181810227Y-87703568D01*
X181861691Y-87692400D01*
X208860949Y-87700272D01*
X208849490Y-83828145D01*
X208868976Y-83761052D01*
X208921644Y-83715141D01*
X208973453Y-83703782D01*
X223492310Y-83699712D01*
X223472209Y-80888099D01*
X223491414Y-80820925D01*
X223543889Y-80774794D01*
X223597046Y-80763220D01*
X233549492Y-80830753D01*
G37*
%TD.AperFunction*%
%TD*%
%TA.AperFunction,Conductor*%
%TO.N,/Secondary 1*%
G36*
X239100132Y-73747103D02*
G01*
X239145932Y-73799867D01*
X239157182Y-73851480D01*
X239155283Y-127063513D01*
X239135596Y-127130552D01*
X239082790Y-127176305D01*
X239031293Y-127187509D01*
X186069793Y-127191984D01*
X186002752Y-127172305D01*
X185956993Y-127119505D01*
X185945783Y-127067960D01*
X185947016Y-121095071D01*
X185966713Y-121028041D01*
X186019527Y-120982297D01*
X186071010Y-120971103D01*
X205826154Y-120971199D01*
X205933374Y-120959698D01*
X205984779Y-120948541D01*
X206087110Y-120914563D01*
X206208225Y-120836892D01*
X206214600Y-120831378D01*
X206261076Y-120791186D01*
X206264553Y-120788206D01*
X206265648Y-120789484D01*
X206320775Y-120759595D01*
X206346820Y-120756839D01*
X208114516Y-120757671D01*
X208119915Y-119300952D01*
X208139848Y-119233987D01*
X208192821Y-119188428D01*
X208243941Y-119177413D01*
X217326615Y-119179474D01*
X217366610Y-119179484D01*
X217366610Y-119179483D01*
X217366611Y-119179484D01*
X217360131Y-108708586D01*
X217379774Y-108641537D01*
X217432550Y-108595750D01*
X217484213Y-108584512D01*
X226928808Y-108590931D01*
X226945225Y-108590943D01*
X226945225Y-108590942D01*
X226945226Y-108590943D01*
X226949035Y-103894288D01*
X226968774Y-103827267D01*
X227021615Y-103781555D01*
X227073058Y-103770391D01*
X234160116Y-103771916D01*
X234178714Y-80239847D01*
X234178714Y-80239846D01*
X222714928Y-80240922D01*
X222709903Y-82998648D01*
X222690096Y-83065651D01*
X222637209Y-83111310D01*
X222585885Y-83122422D01*
X208319103Y-83120336D01*
X208319102Y-83120337D01*
X208318473Y-86957906D01*
X208298777Y-87024943D01*
X208245966Y-87070689D01*
X208194269Y-87081886D01*
X201506170Y-87070884D01*
X201439163Y-87051089D01*
X201393495Y-86998210D01*
X201382374Y-86946667D01*
X201399096Y-77509143D01*
X201418900Y-77442141D01*
X201471784Y-77396480D01*
X201523253Y-77385365D01*
X214217067Y-77401677D01*
X214207497Y-73873079D01*
X214227000Y-73805991D01*
X214279680Y-73760093D01*
X214331389Y-73748747D01*
X239033077Y-73727476D01*
X239100132Y-73747103D01*
G37*
%TD.AperFunction*%
%TD*%
%TA.AperFunction,Conductor*%
%TO.N,/Fused GND*%
G36*
X95213543Y-78672459D02*
G01*
X95280568Y-78692189D01*
X95326287Y-78745024D01*
X95337458Y-78796628D01*
X95311415Y-97957395D01*
X95291639Y-98024407D01*
X95238773Y-98070090D01*
X95187398Y-98081226D01*
X59032091Y-98076248D01*
X58965054Y-98056554D01*
X58919307Y-98003744D01*
X58908108Y-97952131D01*
X58925534Y-79479143D01*
X58945282Y-79412125D01*
X58961844Y-79391592D01*
X59668791Y-78684645D01*
X59730110Y-78651163D01*
X59756533Y-78648330D01*
X95213543Y-78672459D01*
G37*
%TD.AperFunction*%
%TD*%
%TA.AperFunction,Conductor*%
%TO.N,Net-(D5-A)*%
G36*
X185307716Y-121187157D02*
G01*
X185374740Y-121206893D01*
X185420455Y-121259731D01*
X185431621Y-121311305D01*
X185423960Y-127711420D01*
X213762675Y-127737661D01*
X213829696Y-127757408D01*
X213875402Y-127810254D01*
X213886560Y-127861769D01*
X213877989Y-137742797D01*
X213858246Y-137809819D01*
X213805403Y-137855528D01*
X213754046Y-137866689D01*
X175941839Y-137884148D01*
X175874791Y-137864494D01*
X175829011Y-137811712D01*
X175817782Y-137760169D01*
X175815376Y-121304042D01*
X175835051Y-121237001D01*
X175887848Y-121191238D01*
X175939467Y-121180025D01*
X185307716Y-121187157D01*
G37*
%TD.AperFunction*%
%TD*%
%TA.AperFunction,Conductor*%
%TO.N,+8V*%
G36*
X144981530Y-79473711D02*
G01*
X145027323Y-79526482D01*
X145038566Y-79577998D01*
X145050118Y-98122214D01*
X145030475Y-98189265D01*
X145030336Y-98189482D01*
X134566249Y-114420061D01*
X134513379Y-114465739D01*
X134462111Y-114476870D01*
X49850019Y-114531219D01*
X49782967Y-114511577D01*
X49737178Y-114458803D01*
X49725940Y-114407263D01*
X49721168Y-99022241D01*
X49740832Y-98955198D01*
X49793622Y-98909427D01*
X49845163Y-98898205D01*
X96200332Y-98898204D01*
X96193823Y-92766932D01*
X96213436Y-92699874D01*
X96266192Y-92654063D01*
X96317802Y-92642803D01*
X107417371Y-92641162D01*
X107434925Y-92642411D01*
X107484331Y-92649478D01*
X121799204Y-92639036D01*
X122679021Y-92638907D01*
X122668879Y-79594147D01*
X122688511Y-79527095D01*
X122741280Y-79481299D01*
X122792787Y-79470053D01*
X144914477Y-79454075D01*
X144981530Y-79473711D01*
G37*
%TD.AperFunction*%
%TD*%
%TA.AperFunction,Conductor*%
%TO.N,-15V*%
G36*
X202155936Y-109449786D02*
G01*
X202222954Y-109469537D01*
X202264495Y-109514087D01*
X205938722Y-116203081D01*
X205954039Y-116262898D01*
X205950157Y-120341817D01*
X205930409Y-120408838D01*
X205877561Y-120454542D01*
X205826156Y-120465699D01*
X175057985Y-120465551D01*
X175044883Y-138380317D01*
X175025149Y-138447342D01*
X174972312Y-138493058D01*
X174920442Y-138504225D01*
X157377948Y-138441802D01*
X157310979Y-138421879D01*
X157265412Y-138368913D01*
X157254389Y-138317855D01*
X157245103Y-116203081D01*
X157244557Y-114901708D01*
X157264213Y-114834661D01*
X157316998Y-114788884D01*
X157368575Y-114777657D01*
X191279086Y-114783235D01*
X196475427Y-109481486D01*
X196536410Y-109447388D01*
X196564101Y-109444283D01*
X202155936Y-109449786D01*
G37*
%TD.AperFunction*%
%TD*%
M02*
