M48
; DRILL file {KiCad 7.0.7} date Tue Jan 28 13:26:00 2025
; FORMAT={-:-/ absolute / inch / decimal}
; #@! TF.CreationDate,2025-01-28T13:26:00-05:00
; #@! TF.GenerationSoftware,Kicad,Pcbnew,7.0.7
; #@! TF.FileFunction,Plated,1,2,PTH
FMAT,2
INCH
; #@! TA.AperFunction,Plated,PTH,ComponentDrill
T1C0.0315
; #@! TA.AperFunction,Plated,PTH,ComponentDrill
T2C0.0433
; #@! TA.AperFunction,Plated,PTH,ComponentDrill
T3C0.0469
; #@! TA.AperFunction,Plated,PTH,ComponentDrill
T4C0.0472
; #@! TA.AperFunction,Plated,PTH,ComponentDrill
T5C0.0630
; #@! TA.AperFunction,Plated,PTH,ComponentDrill
T6C0.0780
; #@! TA.AperFunction,Plated,PTH,ComponentDrill
T7C0.0787
%
G90
G05
T1
X2.3999Y-2.8445
X2.3999Y-3.0414
X9.0526Y-3.9672
X9.0526Y-4.164
T2
X3.5586Y-2.7205
X3.5586Y-2.8205
X3.5586Y-2.9205
T3
X1.9846Y-3.303
X2.0846Y-3.303
X2.1846Y-3.303
T4
X8.8294Y-3.7665
X8.8294Y-4.3665
T5
X7.9216Y-3.7726
X7.9216Y-4.3726
X8.0295Y-2.7616
X8.0295Y-3.3616
X8.0295Y-4.5935
X8.0295Y-5.1935
X8.2127Y-3.7724
X8.2127Y-4.3724
X8.3208Y-2.7616
X8.3208Y-3.3616
X8.3208Y-4.5938
X8.3208Y-5.1938
X8.6254Y-3.3812
X8.6254Y-3.9812
X8.6254Y-4.1691
X8.6254Y-4.7691
T6
X1.3859Y-3.6605
X1.6859Y-3.6605
X2.4327Y-3.6605
X2.7327Y-3.6605
X3.0139Y-3.4024
X3.0139Y-3.5995
X3.0139Y-3.7965
X3.2899Y-3.4024
X3.2899Y-3.5995
X3.2899Y-3.7965
X5.356Y-3.4024
X5.356Y-3.5995
X5.356Y-3.7965
X5.6319Y-3.4024
X5.6319Y-3.5995
X5.6319Y-3.7965
X6.2655Y-3.4024
X6.2655Y-3.5995
X6.2655Y-3.7965
X6.2655Y-4.99
X6.2655Y-5.187
X6.2655Y-5.384
X6.5414Y-3.4024
X6.5414Y-3.5995
X6.5414Y-3.7965
X6.5414Y-4.99
X6.5414Y-5.187
X6.5414Y-5.384
X8.8639Y-3.2449
X8.8639Y-3.442
X8.8639Y-3.639
X8.8639Y-4.4947
X8.8639Y-4.6917
X8.8639Y-4.8888
X9.1398Y-3.2449
X9.1398Y-3.442
X9.1398Y-3.639
X9.1398Y-4.4947
X9.1398Y-4.6917
X9.1398Y-4.8888
T7
X2.0448Y-4.4195
X2.0448Y-4.8132
X3.5088Y-4.4189
X3.5088Y-4.8126
X4.3596Y-3.5384
X4.3596Y-3.9321
X5.2112Y-4.4189
X5.2112Y-4.8126
X6.4433Y-4.2115
X6.4433Y-4.6052
X7.1566Y-4.895
X7.2412Y-3.5384
X7.2412Y-3.9321
X7.5503Y-4.895
T0
M30
